Coordinates
version=1
nRows=5
nColumns=40
inDegrees=yes

Units are S.I. units (second, meters, Newtons, ...)
Angles are in degrees.

endheader
time	pelvis_tilt	pelvis_list	pelvis_rotation	pelvis_tx	pelvis_ty	pelvis_tz	hip_flexion_r	hip_adduction_r	hip_rotation_r	knee_angle_r	knee_angle_r_beta	ankle_angle_r	subtalar_angle_r	mtp_angle_r	hip_flexion_l	hip_adduction_l	hip_rotation_l	knee_angle_l	knee_angle_l_beta	ankle_angle_l	subtalar_angle_l	mtp_angle_l	lumbar_extension	lumbar_bending	lumbar_rotation	arm_flex_r	arm_add_r	arm_rot_r	elbow_flex_r	pro_sup_r	wrist_flex_r	wrist_dev_r	arm_flex_l	arm_add_l	arm_rot_l	elbow_flex_l	pro_sup_l	wrist_flex_l	wrist_dev_l
      5.25000000	     -2.44720733	     26.58807515	     76.75577837	      0.48315970	      1.01029205	     -1.04786781	     -6.72888753	    -10.89746594	     10.20708736	     66.52837070	      1.16113911	      1.66040928	      0.00000000	      0.00000000	    -17.82922087	      9.09774540	    -13.12342729	      9.15205650	      0.15973352	      9.15154891	      0.00000000	      0.00000000	    -38.08932402	     -8.64244238	      4.20552912	     10.22615202	     -9.61339000	      3.55072932	    141.31968033	     83.81455254	      0.00000000	      0.00000000	      3.49496442	    -10.61721293	     -0.84367025	    140.12456778	     79.80764755	      0.00000000	      0.00000000
      5.26000000	     -1.91751802	     26.17842964	     76.49651445	      0.48247499	      1.01207637	     -1.04658855	     -5.03522889	     -9.61513944	     10.69545358	     66.30052786	      1.15716251	      2.43030664	      0.00000000	      0.00000000	    -18.77076203	      8.91889765	    -12.58460387	      8.11104819	      0.14156450	      9.12323796	      0.00000000	      0.00000000	    -37.81589473	     -8.12729811	      4.27094937	      9.97016216	     -9.58387846	      3.58564250	    141.23741201	     83.80678784	      0.00000000	      0.00000000	      3.57207241	    -10.91909661	     -0.65839466	    140.09994530	     79.72030749	      0.00000000	      0.00000000
      5.27000000	     -1.55597417	     25.94497051	     76.44291228	      0.48152216	      1.01388584	     -1.04535788	     -3.67269921	     -8.65609157	     10.78095020	     65.59973385	      1.14493134	      2.21863426	      0.00000000	      0.00000000	    -19.81311297	      8.85824358	    -12.41070397	      7.12844866	      0.12441490	      9.17889312	      0.00000000	      0.00000000	    -37.72865280	     -7.70174017	      4.17020295	      9.76766473	     -9.58906371	      3.46664241	    141.26570151	     83.94996520	      0.00000000	      0.00000000	      3.75555061	    -11.24958631	     -0.44433278	    140.10396354	     79.66422492	      0.00000000	      0.00000000
      5.28000000	     -1.02585555	     25.84409510	     76.51830409	      0.48061125	      1.01595139	     -1.04424730	     -2.76545303	     -7.53306498	     10.68716611	     64.43495671	      1.12460215	      2.41727393	      0.00000000	      0.00000000	    -21.07443364	      8.57875113	    -12.09587098	      6.11800430	      0.10677932	      9.09833039	      0.00000000	      0.00000000	    -37.81987397	     -7.07821722	      3.98811463	      9.53815969	     -9.60671369	      3.32044167	    141.32720077	     84.34343526	      0.00000000	      0.00000000	      3.94159717	    -11.58802909	     -0.23357998	    140.19871681	     79.62847359	      0.00000000	      0.00000000
      5.29000000	     -0.87493048	     25.31600575	     76.68909523	      0.47968951	      1.01700290	     -1.04275950	     -1.17474190	     -6.73217906	     10.63930500	     63.36910105	      1.10599946	      3.06237171	      0.00000000	      0.00000000	    -21.66219802	      8.53538398	    -11.77279561	      5.32389954	      0.09291958	      9.17323860	      0.00000000	      0.00000000	    -37.46473113	     -6.70330347	      3.69206868	      9.30417273	     -9.55449588	      3.34565243	    141.31926403	     84.23858974	      0.00000000	      0.00000000	      4.10018144	    -11.96750629	     -0.13858737	    140.31005418	     79.48661985	      0.00000000	      0.00000000
